<svg width="94" height="60" viewBox="0 0 94 60" xmlns="http://www.w3.org/2000/svg">
  <g fill="#000" fill-rule="nonzero">
    <path d="M93.83846289 45.0236647v-32.132413c0-.956042-.73415291-1.733973-1.63646173-1.733973h-5.9399099c-.43802097 0-.79304345.3551424-.79304345.7930435 0 .437901.35502248.7930434.79304345.7930434h5.9399099c.0053973.0053973.05049475.0564918.05049475.1478861v45.17445161c0 .09127436-.04509745.14248875-.05049475.14788605h-5.9399099c-.43802097 0-.79304345.35502248-.79304345.79292352 0 .43802098.35502248.79304346.79304345.79304346h5.9399099c.90230882 0 1.63646173-.77793102 1.63646173-1.73385303V45.0236647zM.091226 25.9332184v32.13241295c0 .95604196.7341529 1.73397297 1.63646173 1.73397297h5.93990989c.43802098 0 .79304346-.35514242.79304346-.79304346 0-.43790103-.35502248-.79304345-.79304346-.79304345H1.72768773c-.0053973-.00539731-.05049475-.05649176-.05049475-.14788606V12.8911797c0-.0912744.04509745-.1424887.05049475-.147886h5.93990989c.43802098 0 .79304346-.3550225.79304346-.7929236 0-.4380209-.35502248-.7930434-.79304346-.7930434H1.72768773c-.90230882 0-1.63646173.777931-1.63646173 1.733853v13.0420387zM60.4512732 8.436127c-.437901 0-.7930434-.35502248-.7930434-.79304346V1.7032936c-.0053973-.00551725-.0564918-.0506147-.1478861-.0506147H34.48773565c-.0913943 0-.14248875.04509745-.14992503.06056972l.00203898 5.92983493c0 .43802098-.35514242.79304346-.79304346.79304346s-.79304346-.35502248-.79304346-.79304346V1.7032936c0-.90242877.77793102-1.63658167 1.73397297-1.63658167H59.5103437c.956042 0 1.733973.7341529 1.733973 1.63658167v5.93978995c0 .43802098-.3551424.79304346-.7930435.79304346M19.69662292 31.893758l-4.07124428-5.59136418-1.5201199 1.57637178v4.0149924h-2.88995495V18.7591256h2.88995495v5.74176902l5.32845564-5.74176902h3.49037472l-5.3481258 5.5730134 5.5926835 7.561619zM30.6635075 18.7591015h2.889835v13.1346323h-2.889835zM48.40978557 21.4226336v10.4711242h-2.88983501V21.4226336h-3.99676152v-2.6636281H52.4064271v2.6636281zM79.90777589 27.89840008c0-.88311842-.65679159-1.42728632-2.13901044-1.42728632h-3.34116933v2.88983501h3.43412285c1.27676159 0 2.04605692-.45001498 2.04605692-1.42596698v-.03658171zm-.73259369-5.25517228c0-.8634483-.67502247-1.3513643-1.89433278-1.3513643h-2.8532533v2.77733128h2.66482752c1.27688152 0 2.08275856-.41211393 2.08275856-1.38806593v-.03790105zm-1.31346323 9.25049452H71.6135632V18.75909h6.09895038c2.68317834 0 4.33427272 1.331814 4.33427272 3.39610183v.03802099c0 1.48221885-.78764613 2.30764612-1.72689648 2.8322638 1.52011988.58350823 2.45817088 1.46530731 2.45817088 3.22878552v.03658171c0 2.40191898-1.95058468 3.60287847-4.91634173 3.60287847M20.78932516 40.5960783h-8.07004478v4.75838069h7.21355305v1.37031481h-7.21355305v5.80533719h-1.503928V39.206813h9.57397278zM29.1436275 52.53013512h-1.5035682V39.2068371h1.5035682zM37.992779 39.206789h1.503928v11.93403266h7.49889037V52.530087H37.992779zM59.97511046 48.87564616h-.07628186l-4.85361307-7.11832066v10.77277335h-1.46554719V39.2068008h1.52287852l4.85361307 7.27052458L64.809773 39.2068008h1.5223988v13.32329805h-1.5034483V41.7378952zM78.4433563 45.14494827c2.96911536.64743627 4.3394302 1.73229381 4.3394302 3.78758612 0 2.30308839-1.90308844 3.78806587-4.54896543 3.78806587-2.1125037 0-3.84491745-.70428784-5.44359807-2.13193398l.93277359-1.10392801c1.38926534 1.2561319 2.7216791 1.88413788 4.56779599 1.88413788 1.78926532 0 2.96947519-.93241377 2.96947519-2.28377805 0-1.25649172-.66638679-1.96041974-3.46434774-2.55052467-3.06434775-.66638679-4.4725636-1.65601196-4.4725636-3.86386793 0-2.1315742 1.84623683-3.6544527 4.37769104-3.6544527 1.94146922 0 3.33073455.5522039 4.68209883 1.6371813l-.87544226 1.1607796c-1.23718137-1.0086956-2.47424281-1.4465966-3.84491744-1.4465966-1.73193399 0-2.835862.9517241-2.835862 2.1699549 0 1.27496251.68533732 1.97937029 3.6164317 2.60737627"/>
  </g>
</svg>
